<svg xmlns="http://www.w3.org/2000/svg" xmlns:xlink="http://www.w3.org/1999/xlink" width="800" zoomAndPan="magnify" viewBox="0 0 600 599.999999" height="800" preserveAspectRatio="xMidYMid meet" version="1.0"><defs><g/></defs><rect x="-60" width="720" fill="#ffffff" y="-60" height="719.999999" fill-opacity="1"/><rect x="-60" width="720" fill="#ffffff" y="-60" height="719.999999" fill-opacity="1"/><rect x="-60" width="720" fill="#5a44c6" y="-60" height="719.999999" fill-opacity="1"/><g fill="#ffffff" fill-opacity="1"><g transform="translate(109.668476, 474.780851)"><g><path d="M 29.792969 -359.589844 C 27.226562 -359.589844 25.171875 -358.046875 25.171875 -355.992188 L 25.171875 -354.964844 C 25.171875 -352.910156 25.683594 -350.34375 28.765625 -346.234375 L 47.261719 -322.089844 L 47.261719 -13.355469 C 47.261719 -5.136719 50.34375 0 58.5625 0 L 132.019531 0 C 134.589844 0 135.617188 -1.542969 135.617188 -3.597656 L 135.617188 -6.164062 C 135.617188 -9.761719 135.101562 -11.816406 132.019531 -16.4375 L 54.453125 -118.152344 L 54.453125 -312.328125 L 283.046875 -13.355469 C 290.238281 -4.625 296.917969 0 303.597656 0 L 323.117188 0 C 331.335938 0 334.417969 -5.136719 334.417969 -13.355469 L 334.417969 -346.234375 C 334.417969 -354.453125 331.335938 -359.589844 323.117188 -359.589844 L 264.554688 -359.589844 C 261.988281 -359.589844 260.960938 -358.046875 260.960938 -355.992188 L 260.960938 -353.425781 C 260.960938 -349.828125 260.960938 -347.261719 264.554688 -343.152344 L 327.226562 -260.960938 L 327.226562 -133.046875 L 326.199219 -133.046875 L 148.457031 -348.800781 C 141.78125 -356.507812 137.15625 -359.589844 129.453125 -359.589844 Z M 29.792969 -359.589844 "/></g></g></g></svg>